<?xml version="1.0" encoding="UTF-8" standalone="no"?>
<!-- Created with Inkscape (http://www.inkscape.org/) -->

<svg
   xmlns:dc="http://purl.org/dc/elements/1.1/"
   xmlns:cc="http://creativecommons.org/ns#"
   xmlns:rdf="http://www.w3.org/1999/02/22-rdf-syntax-ns#"
   xmlns:svg="http://www.w3.org/2000/svg"
   xmlns="http://www.w3.org/2000/svg"
   xmlns:xlink="http://www.w3.org/1999/xlink"
   xmlns:sodipodi="http://sodipodi.sourceforge.net/DTD/sodipodi-0.dtd"
   xmlns:inkscape="http://www.inkscape.org/namespaces/inkscape"
   width="65"
   height="22"
   id="svg3012"
   version="1.1"
   inkscape:version="0.48.1 r9760"
   sodipodi:docname="toggle-off-us.svg">
  <defs
     id="defs3014">
    <linearGradient
       id="linearGradient3763">
      <stop
         style="stop-color:#ffffff;stop-opacity:0.09803922;"
         offset="0"
         id="stop3765" />
      <stop
         style="stop-color:#ffffff;stop-opacity:0.40000001;"
         offset="1"
         id="stop3767" />
    </linearGradient>
    <inkscape:perspective
       sodipodi:type="inkscape:persp3d"
       inkscape:vp_x="0 : 526.18109 : 1"
       inkscape:vp_y="0 : 1000 : 0"
       inkscape:vp_z="744.09448 : 526.18109 : 1"
       inkscape:persp3d-origin="372.04724 : 350.78739 : 1"
       id="perspective3020" />
    <inkscape:perspective
       id="perspective2997"
       inkscape:persp3d-origin="0.5 : 0.33333333 : 1"
       inkscape:vp_z="1 : 0.5 : 1"
       inkscape:vp_y="0 : 1000 : 0"
       inkscape:vp_x="0 : 0.5 : 1"
       sodipodi:type="inkscape:persp3d" />
    <inkscape:perspective
       sodipodi:type="inkscape:persp3d"
       inkscape:vp_x="0 : 0.5 : 1"
       inkscape:vp_y="0 : 1000 : 0"
       inkscape:vp_z="1 : 0.5 : 1"
       inkscape:persp3d-origin="0.5 : 0.33333333 : 1"
       id="perspective3187" />
    <inkscape:perspective
       id="perspective3207"
       inkscape:persp3d-origin="372.04724 : 350.78739 : 1"
       inkscape:vp_z="744.09448 : 526.18109 : 1"
       inkscape:vp_y="0 : 1000 : 0"
       inkscape:vp_x="0 : 526.18109 : 1"
       sodipodi:type="inkscape:persp3d" />
    <inkscape:perspective
       sodipodi:type="inkscape:persp3d"
       inkscape:vp_x="0 : 0.5 : 1"
       inkscape:vp_y="0 : 1000 : 0"
       inkscape:vp_z="1 : 0.5 : 1"
       inkscape:persp3d-origin="0.5 : 0.33333333 : 1"
       id="perspective3261" />
    <inkscape:perspective
       id="perspective3281"
       inkscape:persp3d-origin="372.04724 : 350.78739 : 1"
       inkscape:vp_z="744.09448 : 526.18109 : 1"
       inkscape:vp_y="0 : 1000 : 0"
       inkscape:vp_x="0 : 526.18109 : 1"
       sodipodi:type="inkscape:persp3d" />
    <linearGradient
       inkscape:collect="always"
       xlink:href="#linearGradient3763-9"
       id="linearGradient3769-6"
       x1="-811.08075"
       y1="93.982101"
       x2="-811.08075"
       y2="73.942978"
       gradientUnits="userSpaceOnUse"
       gradientTransform="matrix(1,0,0,0.97696084,0.51015678,1.7149)" />
    <linearGradient
       id="linearGradient3763-9">
      <stop
         style="stop-color:#ffffff;stop-opacity:0.10980392;"
         offset="0"
         id="stop3765-3" />
      <stop
         style="stop-color:#ffffff;stop-opacity:0.3137255;"
         offset="1"
         id="stop3767-7" />
    </linearGradient>
    <linearGradient
       inkscape:collect="always"
       xlink:href="#linearGradient3763-3"
       id="linearGradient3769-4"
       x1="-811.08075"
       y1="93.982101"
       x2="-811.08075"
       y2="73.942978"
       gradientUnits="userSpaceOnUse"
       gradientTransform="matrix(1,0,0,0.97696084,-0.19003968,1.9147732)" />
    <linearGradient
       id="linearGradient3763-3">
      <stop
         style="stop-color:#ffffff;stop-opacity:0.10980392;"
         offset="0"
         id="stop3765-5" />
      <stop
         style="stop-color:#ffffff;stop-opacity:0.3137255;"
         offset="1"
         id="stop3767-4" />
    </linearGradient>
    <linearGradient
       inkscape:collect="always"
       xlink:href="#linearGradient3763"
       id="linearGradient3796"
       gradientUnits="userSpaceOnUse"
       gradientTransform="matrix(0.9990158,0,0,0.99350758,451.20819,448.86553)"
       x1="-811.08075"
       y1="93.982101"
       x2="-811.08075"
       y2="73.942978" />
    <linearGradient
       inkscape:collect="always"
       xlink:href="#linearGradient3763-8"
       id="linearGradient3796-8"
       gradientUnits="userSpaceOnUse"
       gradientTransform="matrix(0.96774187,0,0,0.99502544,427.29046,448.73027)"
       x1="-811.08075"
       y1="93.982101"
       x2="-811.08075"
       y2="73.942978" />
    <linearGradient
       id="linearGradient3763-8">
      <stop
         style="stop-color:#ffffff;stop-opacity:0.09803922;"
         offset="0"
         id="stop3765-7" />
      <stop
         style="stop-color:#ffffff;stop-opacity:0.3137255;"
         offset="1"
         id="stop3767-9" />
    </linearGradient>
  </defs>
  <sodipodi:namedview
     id="base"
     pagecolor="#ffffff"
     bordercolor="#666666"
     borderopacity="1.0"
     inkscape:pageopacity="0.0"
     inkscape:pageshadow="2"
     inkscape:zoom="10"
     inkscape:cx="10.632869"
     inkscape:cy="-3.861427"
     inkscape:document-units="px"
     inkscape:current-layer="layer1"
     showgrid="true"
     inkscape:window-width="1280"
     inkscape:window-height="972"
     inkscape:window-x="0"
     inkscape:window-y="26"
     inkscape:window-maximized="1"
     inkscape:snap-global="false">
    <inkscape:grid
       type="xygrid"
       id="grid3773"
       empspacing="5"
       visible="true"
       enabled="true"
       snapvisiblegridlinesonly="true" />
  </sodipodi:namedview>
  <metadata
     id="metadata3017">
    <rdf:RDF>
      <cc:Work
         rdf:about="">
        <dc:format>image/svg+xml</dc:format>
        <dc:type
           rdf:resource="http://purl.org/dc/dcmitype/StillImage" />
        <dc:title></dc:title>
      </cc:Work>
    </rdf:RDF>
  </metadata>
  <g
     inkscape:groupmode="layer"
     id="layer3"
     inkscape:label="Layer"
     style="display:none"
     sodipodi:insensitive="true">
    <rect
       style="fill:#666666;fill-opacity:1;fill-rule:nonzero;stroke:none"
       id="rect3785"
       width="65"
       height="22"
       x="3.5527137e-15"
       y="-1.0912702e-15" />
  </g>
  <g
     inkscape:label="Layer 1"
     inkscape:groupmode="layer"
     id="layer1"
     transform="translate(-343,-521.36218)"
     style="display:inline">
    <rect
       style="fill:url(#linearGradient3796);fill-opacity:1;stroke:#ffffff;stroke-width:0;stroke-linecap:round;stroke-linejoin:miter;stroke-miterlimit:4;stroke-opacity:0.09803922;stroke-dasharray:none;stroke-dashoffset:0;display:inline"
       id="rect17458"
       width="30.969492"
       height="19.969503"
       x="-375.97708"
       y="522.38513"
       rx="2"
       ry="2"
       transform="scale(-1,1)" />
    <rect
       style="opacity:0.1;fill:none;stroke:#000000;stroke-width:1;stroke-linecap:round;stroke-linejoin:miter;stroke-miterlimit:4;stroke-opacity:1;stroke-dasharray:none;stroke-dashoffset:0;display:inline"
       id="rect17458-1"
       width="31.984556"
       height="20.984556"
       x="-376.48456"
       y="521.87762"
       rx="2.5"
       ry="2.5"
       transform="scale(-1,1)" />
    <path
       style="font-size:medium;font-style:normal;font-variant:normal;font-weight:normal;font-stretch:normal;text-indent:0;text-align:start;text-decoration:none;line-height:normal;letter-spacing:normal;word-spacing:normal;text-transform:none;direction:ltr;block-progression:tb;writing-mode:lr-tb;text-anchor:start;baseline-shift:baseline;opacity:0.2;color:#000000;fill:#ffffff;fill-opacity:1;stroke:none;stroke-width:1;marker:none;visibility:visible;display:inline;overflow:visible;enable-background:accumulate;font-family:Sans;-inkscape-font-specification:Sans"
       d="m 404.28545,523.36221 c 1.45894,0 2.71455,1.02281 2.71455,2.35944 l 0,13.25629 c 0,1.33662 -1.25561,2.35944 -2.71455,2.35944 l -28.00137,0 -0.006,0.0248 0,-17.97516 0.006,-0.0248 z m 0,0.99346 -28.03545,0 0.0278,-0.007 7e-5,16.02152 0.006,-0.0248 28.00138,0 c 0.98382,0 1.69259,-0.64388 1.69259,-1.36599 l 0,-13.25632 c 0,-0.72211 -0.70877,-1.36598 -1.69259,-1.36598 z"
       id="rect17458-1-7"
       inkscape:connector-curvature="0"
       sodipodi:nodetypes="ssssccccscccccssssc" />
    <rect
       style="opacity:0.15;fill:none;stroke:#ffffff;stroke-width:0.99987227000000001;stroke-linecap:round;stroke-linejoin:miter;stroke-miterlimit:4;stroke-opacity:1;stroke-dasharray:none;stroke-dashoffset:0;display:inline"
       id="rect17458-1-8"
       width="30.000128"
       height="19.000128"
       x="-375.4924"
       y="522.86981"
       rx="1.5"
       ry="1.5"
       transform="scale(-1,1)" />
    <path
       style="font-size:medium;font-style:normal;font-variant:normal;font-weight:normal;font-stretch:normal;text-indent:0;text-align:start;text-decoration:none;line-height:normal;letter-spacing:normal;word-spacing:normal;text-transform:none;direction:ltr;block-progression:tb;writing-mode:lr-tb;text-anchor:start;baseline-shift:baseline;opacity:0.4;color:#000000;fill:#000000;fill-opacity:1;stroke:none;stroke-width:1;marker:none;visibility:visible;display:inline;overflow:visible;enable-background:accumulate;font-family:Sans;-inkscape-font-specification:Sans"
       d="m 404.29197,524.36917 -28.29197,0 0.028,-0.007 8e-5,16 0.006,-0.0248 28.25761,0 c 0.99281,0 1.70808,-0.64301 1.70808,-1.36415 l 0,-13.23852 c 0,-0.72114 -0.71527,-1.36414 -1.70808,-1.36414 z"
       id="rect17458-1-7-3"
       inkscape:connector-curvature="0" />
  </g>
  <g
     transform="translate(-795.43301,-72.930914)"
     id="text17468"
     style="font-size:8.95877075px;font-style:normal;font-variant:normal;font-weight:bold;font-stretch:normal;text-indent:0;text-align:start;text-decoration:none;line-height:125%;letter-spacing:normal;word-spacing:normal;text-transform:none;direction:ltr;block-progression:tb;writing-mode:lr-tb;text-anchor:start;color:#000000;fill:#ffffff;fill-opacity:1;fill-rule:nonzero;stroke:none;stroke-width:1px;marker:none;visibility:visible;display:inline;overflow:visible;enable-background:accumulate;font-family:Cantarell;-inkscape-font-specification:Cantarell Bold">
    <path
       inkscape:connector-curvature="0"
       id="path18599"
       style="line-height:125%;fill:#ffffff;fill-opacity:1;marker:none;font-family:Cantarell;-inkscape-font-specification:Cantarell Bold"
       d="m 837.28518,80.750726 c 0.63282,6e-6 1.19566,0.123947 1.68852,0.371824 0.49284,0.247888 0.8807,0.609505 1.16359,1.084851 0.28287,0.472439 0.42431,1.022155 0.42431,1.649149 0,0.635748 -0.13853,1.200045 -0.41556,1.692892 -0.27706,0.489934 -0.66638,0.870507 -1.16797,1.141719 -0.5016,0.271213 -1.07756,0.406819 -1.72789,0.406819 -0.42869,0 -0.83551,-0.06562 -1.22045,-0.196848 -0.38495,-0.134148 -0.73053,-0.32808 -1.03674,-0.581795 -0.30329,-0.256631 -0.54534,-0.589085 -0.72615,-0.997363 -0.17789,-0.408276 -0.26684,-0.869045 -0.26683,-1.382311 -10e-6,-0.638658 0.13997,-1.200039 0.41994,-1.684144 0.27996,-0.487011 0.66782,-0.858835 1.16359,-1.115472 0.49576,-0.259541 1.06297,-0.389315 1.70164,-0.389321 m 0.57305,1.089225 c -0.20123,-0.05249 -0.40683,-0.07873 -0.61679,-0.07874 -0.20998,5e-6 -0.41412,0.02625 -0.61242,0.07874 -0.19831,0.04958 -0.38933,0.129779 -0.57305,0.240592 -0.18081,0.107907 -0.33974,0.242055 -0.47681,0.402445 -0.13706,0.160399 -0.24642,0.358705 -0.32808,0.594918 -0.0816,0.233306 -0.12248,0.491395 -0.12248,0.774269 0,0.67366 0.20851,1.214627 0.62554,1.622903 0.41702,0.408278 0.93758,0.612416 1.56166,0.612416 0.25954,0 0.51034,-0.04229 0.7524,-0.126858 0.24496,-0.08457 0.47097,-0.20997 0.67803,-0.376198 0.20705,-0.166226 0.37328,-0.392236 0.49868,-0.678032 0.12539,-0.285792 0.18809,-0.610956 0.1881,-0.975492 -10e-6,-0.297455 -0.0437,-0.568668 -0.13123,-0.813638 -0.0875,-0.247878 -0.20415,-0.453475 -0.34995,-0.61679 -0.14291,-0.163307 -0.31059,-0.301829 -0.50306,-0.415568 -0.18956,-0.11373 -0.38641,-0.195385 -0.59054,-0.244967" />
    <path
       sodipodi:nodetypes="ccccccccccc"
       inkscape:connector-curvature="0"
       id="path18601"
       style="line-height:125%;fill:#ffffff;fill-opacity:1;marker:none;font-family:Cantarell;-inkscape-font-specification:Cantarell Bold"
       d="m 843.5362,81.831203 0,1.17917 2.94834,0 0,1.014861 -2.94834,0 0,3.00713 -1.10673,0 0,-6.216022 4.31754,0 0,1.014861 -3.21081,0" />
    <path
       sodipodi:nodetypes="ccccccccccc"
       inkscape:connector-curvature="0"
       id="path18603"
       style="line-height:125%;fill:#ffffff;fill-opacity:1;marker:none;font-family:Cantarell;-inkscape-font-specification:Cantarell Bold"
       d="m 849.71285,81.831203 0,1.17917 2.94834,0 0,1.014861 -2.94834,0 0,3.00713 -1.10672,0 0,-6.216022 4.31753,0 0,1.014861 -3.21081,0" />
  </g>
</svg>
